{
  "accessors": [
    {
      "name": "Box001-Mesh_0_positions",
      "componentType": 5126,
      "count": 347,
      "min": [
        -16.98004150390625,
        -4.1719841957092285,
        -30.71949005126953
      ],
      "max": [
        13.9466552734375,
        2.691154956817627,
        31.015579223632812
      ],
      "type": "VEC3",
      "bufferView": 0,
      "byteOffset": 0
    },
    {
      "name": "Box001-Mesh_0_normals",
      "componentType": 5126,
      "count": 347,
      "min": [
        -0.9995704293251038,
        -0.9991968274116516,
        -0.9997535943984985
      ],
      "max": [
        0.9995685815811157,
        0.9991968274116516,
        0.9995304346084595
      ],
      "type": "VEC3",
      "bufferView": 1,
      "byteOffset": 0
    },
    {
      "name": "Box001-Mesh_0_texcoords",
      "componentType": 5126,
      "count": 347,
      "min": [
        0.017500000074505806,
        0.29120001196861267
      ],
      "max": [
        0.5852000117301941,
        0.6413999795913696
      ],
      "type": "VEC2",
      "bufferView": 2,
      "byteOffset": 0
    },
    {
      "name": "Box001-Mesh_0_indices",
      "componentType": 5123,
      "count": 792,
      "min": [
        0
      ],
      "max": [
        346
      ],
      "type": "SCALAR",
      "bufferView": 3,
      "byteOffset": 0
    }
  ],
  "asset": {
    "generator": "obj2gltf",
    "version": "2.0"
  },
  "buffers": [
    {
      "name": "WhiteChocolate",
      "byteLength": 2943548,
      "uri": "data:application/octet-stream;base64,"
    }
  ],
  "bufferViews": [
    {
      "name": "bufferView_0",
      "buffer": 0,
      "byteLength": 4164,
      "byteOffset": 0,
      "byteStride": 12,
      "target": 34962
    },
    {
      "name": "bufferView_1",
      "buffer": 0,
      "byteLength": 4164,
      "byteOffset": 4164,
      "byteStride": 12,
      "target": 34962
    },
    {
      "name": "bufferView_2",
      "buffer": 0,
      "byteLength": 2776,
      "byteOffset": 8328,
      "byteStride": 8,
      "target": 34962
    },
    {
      "name": "bufferView_3",
      "buffer": 0,
      "byteLength": 1584,
      "byteOffset": 11104,
      "target": 34963
    },
    {
      "buffer": 0,
      "byteOffset": 12688,
      "byteLength": 2930860
    }
  ],
  "images": [
    {
      "name": "WhiteChocolate",
      "mimeType": "image/jpeg",
      "bufferView": 4
    }
  ],
  "materials": [
    {
      "name": "wire_141007058",
      "pbrMetallicRoughness": {
        "baseColorTexture": {
          "index": 0
        },
        "baseColorFactor": [
          1,
          1,
          1,
          1
        ],
        "metallicFactor": 0,
        "roughnessFactor": 0.968
      },
      "emissiveFactor": [
        0,
        0,
        0
      ],
      "alphaMode": "OPAQUE",
      "doubleSided": false
    }
  ],
  "meshes": [
    {
      "name": "Box001-Mesh",
      "primitives": [
        {
          "attributes": {
            "POSITION": 0,
            "NORMAL": 1,
            "TEXCOORD_0": 2
          },
          "indices": 3,
          "material": 0,
          "mode": 4
        }
      ]
    }
  ],
  "nodes": [
    {
      "name": "Box001",
      "mesh": 0
    }
  ],
  "samplers": [
    {
      "magFilter": 9729,
      "minFilter": 9986,
      "wrapS": 10497,
      "wrapT": 10497
    }
  ],
  "scene": 0,
  "scenes": [
    {
      "nodes": [
        0
      ]
    }
  ],
  "textures": [
    {
      "name": "WhiteChocolate",
      "sampler": 0,
      "source": 0
    }
  ]
}
